<svg width="508" height="600" viewBox="0 0 508 600" fill="none" xmlns="http://www.w3.org/2000/svg">
<g clip-path="url(#clip0_2551_2950)">
<path d="M254.034 0C254.034 0 318.831 34.2 368.043 48.5C426.547 65.5 507.263 77.5125 507.263 77.5125C507.263 77.5125 534.741 447.943 254.034 600C-26.5874 447.943 0.72513 77.0125 0.72513 77.0125C0.72513 77.0125 80.1564 65.0308 129.51 51C180.514 36.5 254.034 0 254.034 0Z" fill="#FFFB42" style="fill:#FFFB42;fill:color(display-p3 1.0000 0.9843 0.2588);fill-opacity:1;"/>
<path d="M247.882 415C215.094 415 188.418 387.05 188.418 352.698V309.605H174.464C141.676 309.605 115 281.655 115 247.302C115 212.95 141.676 185 174.464 185H333.536C366.324 185 393 212.95 393 247.302C393 281.655 366.324 309.605 333.536 309.605H320.04C314.23 309.605 309.52 304.67 309.52 298.583C309.52 292.495 314.23 287.561 320.04 287.561H333.536C354.723 287.561 371.962 269.499 371.962 247.3C371.962 225.101 354.723 207.04 333.536 207.04H174.464C153.277 207.04 136.038 225.101 136.038 247.3C136.038 269.499 153.277 287.561 174.464 287.561H198.938C204.748 287.561 209.458 292.495 209.458 298.583V352.695C209.458 374.894 226.697 392.956 247.884 392.956C269.072 392.956 286.31 374.894 286.31 352.695V339.127C286.31 322.848 273.669 309.605 258.133 309.605H232.93C228.606 309.605 224.723 306.832 223.141 302.615C221.559 298.399 222.601 293.598 225.768 290.511L258.816 258.322H215.402C209.592 258.322 204.882 253.387 204.882 247.3C204.882 241.213 209.592 236.278 215.402 236.278H285.579C289.903 236.278 293.787 239.051 295.368 243.268C296.95 247.484 295.908 252.285 292.741 255.372L259.669 287.586C286.1 288.438 307.348 311.232 307.348 339.127V352.695C307.348 387.048 280.672 414.998 247.884 414.998L247.882 415Z" fill="black" style="fill:black;fill-opacity:1;"/>
</g>
<defs>
<clipPath id="clip0_2551_2950">
<rect width="508" height="600" fill="white" style="fill:white;fill-opacity:1;"/>
</clipPath>
</defs>
</svg>
