<svg width="508" height="600" viewBox="0 0 508 600" fill="none" xmlns="http://www.w3.org/2000/svg">
<rect width="508" height="600" fill="black" style="fill:black;fill-opacity:1;"/>
<path d="M254.03 38C254.03 38 310.663 67.868 353.675 80.3567C404.809 95.2033 475.356 105.694 475.356 105.694C475.356 105.694 499.372 429.203 254.03 562C8.76219 429.204 32.6338 105.258 32.6338 105.258C32.6338 105.258 102.058 94.7936 145.194 82.54C189.772 69.8767 254.03 38 254.03 38Z" fill="#FFFB42" style="fill:#FFFB42;fill:color(display-p3 1.0000 0.9843 0.2588);fill-opacity:1;"/>
<path d="M248.653 400.433C219.996 400.433 196.68 376.024 196.68 346.023V308.388H184.484C155.827 308.388 132.512 283.979 132.512 253.977C132.512 223.976 155.827 199.567 184.484 199.567H323.516C352.173 199.567 375.488 223.976 375.488 253.977C375.488 283.979 352.173 308.388 323.516 308.388H311.72C306.642 308.388 302.525 304.078 302.525 298.762C302.525 293.446 306.642 289.136 311.72 289.136H323.516C342.034 289.136 357.101 273.362 357.101 253.975C357.101 234.589 342.034 218.815 323.516 218.815H184.484C165.966 218.815 150.899 234.589 150.899 253.975C150.899 273.362 165.966 289.136 184.484 289.136H205.875C210.953 289.136 215.07 293.446 215.07 298.762V346.021C215.07 365.407 230.137 381.181 248.655 381.181C267.173 381.181 282.24 365.407 282.24 346.021V334.171C282.24 319.954 271.191 308.388 257.612 308.388H235.584C231.805 308.388 228.411 305.966 227.029 302.284C225.646 298.601 226.557 294.409 229.325 291.713L258.21 263.601H220.265C215.187 263.601 211.071 259.292 211.071 253.975C211.071 248.659 215.187 244.349 220.265 244.349H281.601C285.38 244.349 288.774 246.771 290.156 250.454C291.539 254.136 290.629 258.329 287.86 261.025L258.955 289.158C282.056 289.903 300.627 309.81 300.627 334.171V346.021C300.627 376.022 277.312 400.431 248.655 400.431L248.653 400.433Z" fill="black" style="fill:black;fill-opacity:1;"/>
</svg>
